<svg xmlns="http://www.w3.org/2000/svg" viewBox="230 30 540 540" width="512" height="512">
<rect width="1024" height="1024" fill="#000000"/>
<path fill="#FFFFFF" d="M581.424927,511.710388 C555.112549,501.641144 530.849609,488.676666 508.141937,472.571808 C495.022125,463.266846 486.863556,451.839569 486.562408,435.373383 C486.511414,432.584198 486.331207,429.520386 483.625824,426.095825 C483.113953,429.468750 482.471008,431.844086 482.438354,434.227753 C482.249268,448.036591 475.062073,457.771057 464.288330,465.268799 C452.175049,473.698792 438.243225,476.736328 423.852844,478.270630 C407.871643,479.974548 391.900757,478.310638 375.925507,478.229462 C375.312256,478.226349 374.700439,477.936646 374.173157,477.802246 C373.590393,475.939484 374.957214,475.158264 375.785126,474.253632 C398.731140,449.180664 403.214661,419.070953 400.294739,386.667877 C398.919495,371.407013 395.338593,356.486145 394.438293,341.155823 C393.056091,317.618988 397.580475,295.417572 408.544830,274.652649 C428.800690,236.290909 461.088654,214.232300 503.442444,207.290222 C531.494507,202.692307 558.723999,206.550415 584.851013,218.525238 C617.844971,233.647369 637.315918,259.808746 647.026855,293.730347 C659.708801,338.030212 670.046265,382.988129 684.152832,426.896027 C684.399902,427.664978 684.693237,428.494049 683.799744,429.654694 C671.038757,426.246490 658.108704,422.749176 645.148010,419.369019 C642.590149,418.701904 642.452820,416.564453 641.957764,414.763672 C637.326721,397.918549 633.378235,380.906494 629.649170,363.841034 C627.661194,354.743286 625.491638,345.685059 623.529785,336.581909 C622.809326,333.238953 620.468689,333.155090 617.847656,333.152985 C602.518677,333.140594 587.189575,333.118835 571.860779,333.051788 C560.199646,333.000793 548.538696,332.883911 536.877869,332.778442 C535.544373,332.766388 534.206482,332.614502 532.848938,333.829498 C534.412292,337.315308 537.930847,338.764893 540.723877,340.816803 C554.788086,351.149353 569.731018,359.758667 587.177917,363.024323 C593.397217,364.188416 599.692749,364.996643 606.025757,364.874207 C609.159790,364.813629 610.561951,366.119446 611.153259,368.981598 C620.063049,412.106842 640.471252,450.977661 656.509766,491.465332 C661.706299,504.583466 666.963318,517.677612 672.561523,531.706970 C640.700378,529.595032 610.790649,522.853333 581.424927,511.710388z"/>
<path fill="#FFFFFF" d="M435.466339,76.385727 C537.888245,32.718155 642.807678,68.686928 697.998779,122.150887 C693.035156,126.293671 688.133728,130.448944 683.164001,134.520874 C665.262695,149.188309 647.251282,163.723419 629.489441,178.557480 C625.505737,181.884491 623.025330,182.027939 618.574768,178.769836 C585.675659,154.685532 549.020142,141.826035 507.886200,144.348221 C471.100403,146.603790 438.675385,159.887161 411.110077,184.615723 C388.320099,205.060394 372.128113,229.665833 364.958618,259.587189 C358.368774,287.089630 359.124329,314.703888 365.852325,342.142761 C373.330414,372.640808 373.671448,403.178345 365.149200,433.425293 C357.039032,462.209625 337.624146,481.504547 311.122925,494.187408 C307.141785,496.092743 303.246704,498.365967 298.708832,499.050842 C297.791779,496.952454 299.415802,496.126984 300.254700,495.099457 C318.717285,472.485779 325.388275,446.542542 323.118225,417.679443 C321.574127,398.046509 315.809479,379.510345 310.155609,360.907074 C303.761566,339.868378 297.725800,318.758881 295.854919,296.741760 C292.146790,253.103561 301.395050,212.317764 323.796631,174.707962 C349.889130,130.901459 386.360657,98.589432 432.904938,77.693253 C433.663300,77.352768 434.388031,76.937401 435.466339,76.385727z"/>
<path fill="#FFFFFF" d="M515.040283,155.873993 C552.477356,155.826614 585.809326,166.449341 615.800476,189.271103 C608.026794,196.514221 600.878052,203.181274 593.721008,209.839279 C591.904480,211.529129 590.308899,210.093567 588.689392,209.413315 C576.853882,204.441864 564.899597,199.823807 552.122986,197.863373 C480.391724,186.856964 405.795288,225.544022 387.000366,304.028717 C384.046509,316.363678 382.694031,328.915283 382.285583,341.579376 C382.238373,343.042969 382.665527,344.585693 381.733887,345.945923 C379.961517,346.366364 379.915588,344.969269 379.579742,343.918701 C358.753082,278.764374 379.649994,216.275345 437.083740,179.105072 C460.643433,163.857574 486.736053,156.966217 515.040283,155.873993z"/>
</svg>
