<svg version="1.1" id="Layer_1" xmlns="http://www.w3.org/2000/svg" xmlns:xlink="http://www.w3.org/1999/xlink" x="0px" y="0px"
	 width="100%" viewBox="0 0 1024 1024" enable-background="new 0 0 1024 1024" xml:space="preserve">
<path fill="#000000" opacity="1.000000" stroke="none" 
	d="
M581.424927,511.710388 
	C555.112549,501.641144 530.849609,488.676666 508.141937,472.571808 
	C495.022125,463.266846 486.863556,451.839569 486.562408,435.373383 
	C486.511414,432.584198 486.331207,429.520386 483.625824,426.095825 
	C483.113953,429.468750 482.471008,431.844086 482.438354,434.227753 
	C482.249268,448.036591 475.062073,457.771057 464.288330,465.268799 
	C452.175049,473.698792 438.243225,476.736328 423.852844,478.270630 
	C407.871643,479.974548 391.900757,478.310638 375.925507,478.229462 
	C375.312256,478.226349 374.700439,477.936646 374.173157,477.802246 
	C373.590393,475.939484 374.957214,475.158264 375.785126,474.253632 
	C398.731140,449.180664 403.214661,419.070953 400.294739,386.667877 
	C398.919495,371.407013 395.338593,356.486145 394.438293,341.155823 
	C393.056091,317.618988 397.580475,295.417572 408.544830,274.652649 
	C428.800690,236.290909 461.088654,214.232300 503.442444,207.290222 
	C531.494507,202.692307 558.723999,206.550415 584.851013,218.525238 
	C617.844971,233.647369 637.315918,259.808746 647.026855,293.730347 
	C659.708801,338.030212 670.046265,382.988129 684.152832,426.896027 
	C684.399902,427.664978 684.693237,428.494049 683.799744,429.654694 
	C671.038757,426.246490 658.108704,422.749176 645.148010,419.369019 
	C642.590149,418.701904 642.452820,416.564453 641.957764,414.763672 
	C637.326721,397.918549 633.378235,380.906494 629.649170,363.841034 
	C627.661194,354.743286 625.491638,345.685059 623.529785,336.581909 
	C622.809326,333.238953 620.468689,333.155090 617.847656,333.152985 
	C602.518677,333.140594 587.189575,333.118835 571.860779,333.051788 
	C560.199646,333.000793 548.538696,332.883911 536.877869,332.778442 
	C535.544373,332.766388 534.206482,332.614502 532.848938,333.829498 
	C534.412292,337.315308 537.930847,338.764893 540.723877,340.816803 
	C554.788086,351.149353 569.731018,359.758667 587.177917,363.024323 
	C593.397217,364.188416 599.692749,364.996643 606.025757,364.874207 
	C609.159790,364.813629 610.561951,366.119446 611.153259,368.981598 
	C620.063049,412.106842 640.471252,450.977661 656.509766,491.465332 
	C661.706299,504.583466 666.963318,517.677612 672.561523,531.706970 
	C640.700378,529.595032 610.790649,522.853333 581.424927,511.710388 
z"/>
<path fill="#000000" opacity="1.000000" stroke="none" 
	d="
M435.466339,76.385727 
	C537.888245,32.718155 642.807678,68.686928 697.998779,122.150887 
	C693.035156,126.293671 688.133728,130.448944 683.164001,134.520874 
	C665.262695,149.188309 647.251282,163.723419 629.489441,178.557480 
	C625.505737,181.884491 623.025330,182.027939 618.574768,178.769836 
	C585.675659,154.685532 549.020142,141.826035 507.886200,144.348221 
	C471.100403,146.603790 438.675385,159.887161 411.110077,184.615723 
	C388.320099,205.060394 372.128113,229.665833 364.958618,259.587189 
	C358.368774,287.089630 359.124329,314.703888 365.852325,342.142761 
	C373.330414,372.640808 373.671448,403.178345 365.149200,433.425293 
	C357.039032,462.209625 337.624146,481.504547 311.122925,494.187408 
	C307.141785,496.092743 303.246704,498.365967 298.708832,499.050842 
	C297.791779,496.952454 299.415802,496.126984 300.254700,495.099457 
	C318.717285,472.485779 325.388275,446.542542 323.118225,417.679443 
	C321.574127,398.046509 315.809479,379.510345 310.155609,360.907074 
	C303.761566,339.868378 297.725800,318.758881 295.854919,296.741760 
	C292.146790,253.103561 301.395050,212.317764 323.796631,174.707962 
	C349.889130,130.901459 386.360657,98.589432 432.904938,77.693253 
	C433.663300,77.352768 434.388031,76.937401 435.466339,76.385727 
z"/>
<path fill="#000000" opacity="1.000000" stroke="none" 
	d="
M515.040283,155.873993 
	C552.477356,155.826614 585.809326,166.449341 615.800476,189.271103 
	C608.026794,196.514221 600.878052,203.181274 593.721008,209.839279 
	C591.904480,211.529129 590.308899,210.093567 588.689392,209.413315 
	C576.853882,204.441864 564.899597,199.823807 552.122986,197.863373 
	C480.391724,186.856964 405.795288,225.544022 387.000366,304.028717 
	C384.046509,316.363678 382.694031,328.915283 382.285583,341.579376 
	C382.238373,343.042969 382.665527,344.585693 381.733887,345.945923 
	C379.961517,346.366364 379.915588,344.969269 379.579742,343.918701 
	C358.753082,278.764374 379.649994,216.275345 437.083740,179.105072 
	C460.643433,163.857574 486.736053,156.966217 515.040283,155.873993 
z"/>
<path fill="#000000" opacity="1.000000" stroke="none" 
	d="
M720.109985,671.000000 
	C720.098633,686.661926 719.960693,701.825500 720.152771,716.984863 
	C720.211182,721.591492 718.369751,722.553101 714.038025,723.146362 
	C701.177368,724.907776 692.874878,720.749573 685.517639,709.255981 
	C671.349670,687.122314 655.127319,666.302795 639.711975,644.970703 
	C638.702087,643.573120 638.120178,641.640991 636.012695,641.175415 
	C634.768494,642.675659 635.336060,644.405640 635.333130,645.987549 
	C635.289856,669.646851 635.187500,693.307129 635.388916,716.964783 
	C635.428101,721.560669 633.997131,723.297852 629.431458,723.049194 
	C624.781067,722.795837 620.104736,723.046265 615.440125,723.019653 
	C608.735535,722.981445 608.685791,722.932495 608.682251,716.384338 
	C608.662659,679.728943 608.658081,643.073486 608.641235,606.418091 
	C608.635132,593.134766 608.626099,593.134277 622.131165,593.085754 
	C623.963928,593.079163 625.810425,593.222778 627.626648,593.048279 
	C631.540466,592.672058 634.046631,594.340881 636.346497,597.518738 
	C654.022095,621.942139 671.862976,646.245911 689.657104,670.583557 
	C690.631287,671.915955 691.645386,673.219177 692.910217,674.892090 
	C694.168518,672.971375 693.734985,671.163635 693.732788,669.504944 
	C693.701233,645.679199 693.705139,621.852722 693.474609,598.028625 
	C693.438599,594.308594 694.509766,592.849060 698.223999,593.044800 
	C703.708313,593.333801 709.218262,593.691101 714.692139,593.449524 
	C719.055908,593.256958 720.059143,595.079529 720.046448,599.022156 
	C719.970154,622.847778 720.069519,646.674011 720.109985,671.000000 
z"/>
<path fill="#000000" opacity="1.000000" stroke="none" 
	d="
M455.690613,635.912231 
	C465.149017,610.715088 482.606750,595.066345 508.985474,591.313538 
	C551.367676,585.283936 584.690735,612.982605 587.371765,652.966675 
	C590.280701,696.350708 557.039917,728.285828 512.647095,725.079773 
	C480.561829,722.762573 456.351471,698.306702 452.475891,666.277893 
	C451.222260,655.917603 452.677307,646.094238 455.690613,635.912231 
M535.476379,696.020630 
	C556.759949,686.370667 565.591736,660.208679 555.096252,638.455139 
	C546.118896,619.848022 528.927429,613.642273 512.208130,617.034241 
	C489.378052,621.665894 475.567535,646.775818 481.837158,669.604065 
	C487.938721,691.820251 511.852142,706.116272 535.476379,696.020630 
z"/>
<path fill="#000000" opacity="1.000000" stroke="none" 
	d="
M296.868896,722.991455 
	C291.888031,722.999329 287.386963,722.883118 282.896057,723.046448 
	C279.007965,723.187744 277.693787,721.528625 277.701416,717.685181 
	C277.780731,677.714844 277.756958,637.744202 277.673584,597.773865 
	C277.667114,594.669006 278.624725,592.975769 281.864410,593.097229 
	C302.144379,593.857178 322.566528,592.029907 342.692078,594.872192 
	C357.740082,596.997314 369.664246,605.206055 374.779236,620.152893 
	C379.962708,635.299561 378.883026,650.014465 367.737030,662.775208 
	C363.229279,667.936035 357.160767,670.696777 350.418243,673.701172 
	C360.728577,689.804932 370.807007,705.546570 380.770081,721.107971 
	C379.142822,723.529846 377.137848,722.942261 375.421753,722.968079 
	C368.761353,723.068481 362.095215,722.904663 355.438751,723.098389 
	C351.880127,723.202026 349.602325,721.972656 347.762634,718.828552 
	C340.869049,707.047180 333.504120,695.536499 326.807953,683.647217 
	C324.090607,678.822571 320.995575,676.901367 315.372955,677.164917 
	C303.708984,677.711792 305.348785,676.143005 305.276001,687.398621 
	C305.216797,696.558228 305.266541,705.718445 305.271179,714.878418 
	C305.275238,722.869812 305.277222,722.869812 296.868896,722.991455 
M305.251953,632.508911 
	C305.265350,637.824829 305.389740,643.143738 305.250732,648.455627 
	C305.166840,651.661072 306.415100,652.928467 309.632477,652.878479 
	C317.604309,652.754395 325.583160,652.986389 333.552002,652.788086 
	C343.772949,652.533752 349.775513,646.164185 349.772095,635.952026 
	C349.768616,625.445496 343.629120,618.666382 333.589630,618.310974 
	C328.612213,618.134766 323.623535,618.267700 318.639984,618.277954 
	C305.231598,618.305481 305.231598,618.309143 305.251953,632.508911 
z"/>
<path fill="#000000" opacity="1.000000" stroke="none" 
	d="
M172.602020,622.671143 
	C176.008743,614.121582 179.395981,605.977112 182.506851,597.728455 
	C183.665939,594.655029 185.458679,593.216858 188.729202,593.090454 
	C195.067169,592.845459 201.367966,593.328918 207.684357,593.620911 
	C210.239670,593.739014 211.028000,595.390015 211.785263,597.296997 
	C220.872208,620.180481 229.969086,643.059998 239.048584,665.946350 
	C245.795486,682.953064 252.518845,699.969055 259.259094,716.978333 
	C259.863953,718.504822 260.516144,720.012451 261.140198,721.513977 
	C258.807739,723.764709 256.176880,722.868408 253.813583,722.933533 
	C247.823807,723.098511 241.826462,722.967102 235.834137,723.070312 
	C232.758087,723.123291 230.969345,721.890930 229.932220,718.897705 
	C227.644989,712.296570 224.993301,705.822388 222.661545,699.235779 
	C221.688461,696.487061 220.130630,695.331665 217.147369,695.356262 
	C203.828537,695.466248 190.507004,695.492249 177.189301,695.323303 
	C173.868912,695.281128 172.486328,696.750061 171.507919,699.616272 
	C169.251114,706.227539 166.736404,712.750366 164.390518,719.331909 
	C163.807587,720.967285 163.246292,722.659973 161.251053,722.747131 
	C151.846863,723.157654 142.442398,723.298157 132.174438,722.560425 
	C145.813538,688.875671 159.143158,655.955322 172.602020,622.671143 
M197.495438,671.695129 
	C200.988449,671.693481 204.482834,671.629944 207.974045,671.708374 
	C211.177582,671.780334 212.184586,670.584290 211.058777,667.436707 
	C209.156158,662.117310 207.524475,656.701416 205.658554,651.368225 
	C203.049377,643.910583 200.329773,636.491577 197.204666,627.796326 
	C191.630386,643.022766 186.545105,656.913452 181.133469,671.695618 
	C186.947388,671.695618 191.724503,671.695618 197.495438,671.695129 
z"/>
<path fill="#000000" opacity="1.000000" stroke="none" 
	d="
M867.212158,593.513672 
	C880.857849,598.404053 889.735962,607.399475 894.032288,620.897034 
	C895.055359,624.111023 894.568542,625.831604 890.794189,626.353210 
	C885.033264,627.149292 879.299377,628.253113 873.631042,629.560364 
	C870.853210,630.200989 869.549744,629.616089 868.227051,626.979614 
	C862.441772,615.447510 844.146057,611.104675 833.531372,618.535583 
	C826.777100,623.263977 826.887573,631.716003 833.866028,636.394043 
	C839.091248,639.896973 845.243896,640.992249 851.160828,642.658813 
	C859.005920,644.868469 867.063660,646.452087 874.473694,649.981445 
	C901.441833,662.826416 905.000610,695.629333 881.481628,714.146606 
	C859.924133,731.119507 825.445557,728.613159 806.628235,708.660828 
	C801.234619,702.941956 798.210449,695.959778 796.183899,688.465088 
	C795.411316,685.607910 796.097168,684.101746 799.290649,683.705444 
	C805.230286,682.968262 811.149353,682.030334 817.046936,681.003479 
	C820.304810,680.436279 822.327637,681.059265 823.380188,684.639709 
	C825.242615,690.975159 829.809021,695.094177 835.793396,697.499512 
	C843.650696,700.657654 851.786438,700.741150 859.772522,698.217590 
	C865.380920,696.445435 869.201538,692.577393 869.746460,686.351746 
	C870.296387,680.069031 866.524353,676.543823 861.450012,673.975281 
	C854.533386,670.474182 846.896179,669.324768 839.522156,667.325378 
	C832.763062,665.492737 826.027466,663.612793 819.913269,660.059265 
	C806.438477,652.228027 800.362671,640.456665 801.717834,625.010254 
	C802.918640,611.323547 810.493408,601.835754 822.541016,595.998718 
	C836.853149,589.064392 851.756470,588.991638 867.212158,593.513672 
z"/>
<path fill="#000000" opacity="1.000000" stroke="none" 
	d="
M766.909912,592.960876 
	C776.358276,592.894836 776.143005,592.900940 776.387817,601.500305 
	C777.439575,638.449829 775.923523,675.397217 776.416321,712.345398 
	C776.559204,723.057617 776.459473,723.063721 765.593872,723.087402 
	C762.263916,723.094666 758.933472,723.092651 755.603821,723.051697 
	C749.421448,722.975769 749.005005,722.562927 749.004639,716.575134 
	C749.002869,691.933105 749.005554,667.291016 749.010376,642.648987 
	C749.013184,628.496338 749.011353,614.343750 749.034790,600.191101 
	C749.046143,593.314209 749.272827,593.096436 755.935974,593.025574 
	C759.432251,592.988403 762.929016,592.983337 766.909912,592.960876 
z"/>
<path fill="#000000" opacity="1.000000" stroke="none" 
	d="
M430.314484,660.000000 
	C430.319977,679.308533 430.168335,698.119263 430.436249,716.924011 
	C430.506775,721.877197 428.763641,723.373352 424.093414,723.106506 
	C418.783722,722.803162 413.442505,722.909607 408.119476,723.032410 
	C404.546082,723.114807 402.991394,721.705017 403.034363,718.039856 
	C403.475006,680.442505 402.363495,642.838196 403.536957,605.243469 
	C403.557709,604.578186 403.570404,603.912170 403.567719,603.246582 
	C403.528839,593.593140 403.528046,593.587219 413.511322,593.597229 
	C417.505981,593.601196 421.519928,593.892151 425.490112,593.591125 
	C429.874939,593.258728 430.307312,595.620483 430.296600,599.079712 
	C430.234222,619.219604 430.295044,639.359863 430.314484,660.000000 
z"/>
</svg>